<svg xmlns="http://www.w3.org/2000/svg" viewBox="0 0 1408 1408" fill="none">
<g transform="translate(108.0,127.5)">
<path d="M0 0 C200.31 0 400.62 0 607 0 C607 221.1 607 442.2 607 670 C529.12 670 451.24 670 371 670 C372.362548 666.593631 373.421122 664.107931 375.328125 661.128906 C375.790898 660.40123 376.253672 659.673555 376.730469 658.923828 C377.231914 658.14459 377.733359 657.365352 378.25 656.5625 C378.777227 655.735566 379.304453 654.908633 379.847656 654.056641 C380.97809 652.284216 382.110308 650.512928 383.244141 648.742676 C385.58264 645.089909 387.91014 641.430192 390.237793 637.770508 C391.4186 635.914065 392.599921 634.057948 393.781738 632.202148 C399.545879 623.150337 405.275631 614.076995 411 605 C417.904756 594.051294 424.830494 583.116436 431.78418 572.19873 C437.546956 563.147707 443.276375 554.075814 449 545 C455.314192 534.987737 461.641171 524.983989 468 515 C474.357922 505.015475 480.705381 495.024591 487 485 C487.42104 484.329849 487.84208 483.659697 488.275879 482.969238 C489.417139 481.148646 490.553485 479.325112 491.6875 477.5 C492.310117 476.499687 492.932734 475.499375 493.574219 474.46875 C495 472 495 472 496 469 C495.67 468.34 495.34 467.68 495 467 C491.864611 465.95487 489.674186 465.869914 486.38342 465.861335 C485.795223 465.858598 485.795223 465.858598 482.81859 465.844746 C481.519969 465.843767 480.221349 465.842789 478.883377 465.841782 C477.494854 465.837217 476.106331 465.832217 474.717811 465.826818 C470.893663 465.813214 467.069524 465.805812 463.245359 465.799391 C459.124708 465.791397 455.004076 465.777696 450.883438 465.764679 C443.741291 465.742902 436.599142 465.724762 429.45698 465.709074 C419.130541 465.686386 408.804123 465.658242 398.477701 465.628755 C381.724808 465.581065 364.971906 465.537805 348.218994 465.497314 C331.94262 465.457966 315.666254 465.416542 299.389893 465.372314 C298.38705 465.36959 297.384208 465.366866 296.350976 465.364059 C291.32014 465.35038 286.289304 465.336659 281.258468 465.322919 C239.505661 465.208933 197.752838 465.102128 156 465 C156.255617 464.214639 156.511234 463.429277 156.774597 462.620117 C157.740959 459.646258 158.704659 456.671552 159.666687 453.696289 C160.280852 451.799486 160.897955 449.903636 161.515137 448.007812 C169.773744 422.441451 175.521334 395.780364 178 369 C178.0854 368.123196 178.170801 367.246392 178.258789 366.343018 C179.307375 354.063476 179.243686 341.7533 179.25 329.4375 C179.250675 328.255037 179.251349 327.072574 179.252045 325.854279 C179.235896 308.030415 178.749875 290.638718 176 273 C175.916855 272.440789 175.916855 272.440789 175.496094 269.61084 C165.960555 206.791066 141.271886 146.770128 103 96 C102.140418 94.842602 101.28103 93.685059 100.421875 92.527344 C85.700788 72.870761 68.676876 53.959672 50 38 C49.064141 37.186602 48.128281 36.373203 47.164062 35.535156 C34.362489 24.47374 20.820241 14.698433 6.654297 5.455811 C5.788691 4.889026 4.923086 4.322241 4.03125 3.738281 C3.253301 3.233372 2.475352 2.728462 1.673828 2.208252 C1.121465 1.809529 0.569102 1.410806 0 1 C0 0.67 0 0.34 0 0 Z " fill="#C8BFE7" transform="translate(566,39)"/>
<path d="M0 0 C1.094897 0.001823 2.189795 0.003646 3.317871 0.005524 C20.190997 0.052711 36.753519 0.571163 53.4375 3.3125 C54.522407 3.489424 55.607314 3.666348 56.725098 3.848633 C93.469916 10.037796 130.944758 20.745219 163.4375 39.3125 C163.4375 186.1625 163.4375 333.0125 163.4375 484.3125 C-10.9375 484.75 -10.9375 484.75 -66.095215 484.880615 C-88.239502 484.939575 -88.239502 484.939575 -98.59024 484.968399 C-105.854316 484.988283 -113.118391 485.005437 -120.382477 485.020767 C-128.750441 485.038436 -137.118388 485.059509 -145.486333 485.084874 C-149.771228 485.097753 -154.056111 485.109045 -158.341019 485.11597 C-162.209314 485.12225 -166.077568 485.133036 -169.945841 485.147545 C-171.350286 485.151994 -172.754738 485.154732 -174.15919 485.155659 C-176.06145 485.157158 -177.963701 485.165298 -179.865942 485.173835 C-180.925362 485.176493 -181.984781 485.179151 -183.076305 485.181889 C-185.5625 485.3125 -185.5625 485.3125 -187.5625 486.3125 C-187.288436 493.258615 -184.169237 497.697791 -180.375 503.375 C-179.092128 505.340937 -177.809585 507.307089 -176.527344 509.273438 C-176.197908 509.774077 -176.197908 509.774077 -174.530762 512.307617 C-171.451853 517.00809 -168.446149 521.754377 -165.4375 526.5 C-164.270991 528.333433 -163.104325 530.166768 -161.9375 532 C-156.304234 540.861462 -150.704743 549.744245 -145.103516 558.625977 C-139.275054 567.866695 -133.43166 577.097566 -127.5625 586.3125 C-120.713781 597.065401 -113.904037 607.842553 -107.103516 618.625977 C-101.275053 627.866696 -95.431507 637.097468 -89.5625 646.3125 C-70.363238 676.46651 -70.363238 676.46651 -64.5625 686.3125 C-73.116938 685.843248 -81.179381 683.867813 -89.4375 681.6875 C-89.780869 681.597522 -89.780869 681.597522 -91.518524 681.142181 C-134.485681 669.839102 -175.153029 650.208515 -210.5625 623.3125 C-211.558945 622.57 -212.555391 621.8275 -213.582031 621.0625 C-226.808813 611.136848 -238.873225 600.183009 -250.5625 588.5 C-250.809909 588.253089 -250.809909 588.253089 -252.061951 587.003571 C-302.480936 536.573062 -335.130853 469.47534 -346.5625 399.3125 C-346.726211 398.322822 -346.889922 397.333145 -347.058594 396.313477 C-352.19405 363.45292 -352.080737 327.106905 -346.5625 294.3125 C-346.396211 293.275127 -346.229922 292.237754 -346.058594 291.168945 C-335.784002 228.360745 -308.238859 166.788873 -264.828125 119.789062 C-262.980175 117.769062 -261.190755 115.719785 -259.40625 113.644531 C-248.867409 101.573588 -237.284029 90.066909 -224.5625 80.3125 C-223.416422 79.381099 -222.273411 78.445916 -221.132812 77.507812 C-200.043459 60.21977 -176.931272 46.461412 -152.5625 34.3125 C-151.708013 33.880825 -150.853525 33.44915 -149.973145 33.004395 C-121.083724 18.556864 -89.036022 9.553703 -57.3125 4.0625 C-56.439482 3.911035 -55.566465 3.75957 -54.666992 3.603516 C-36.506166 0.681388 -18.366269 -0.063752 0 0 Z " fill="#44DB72" transform="translate(369.5625,19.6875)"/>
<path d="M0 0 C0 11.22 0 22.44 0 34 C112.86 34 225.72 34 342 34 C340.503848 37.740379 339.251371 40.375236 337.085938 43.640625 C336.497803 44.533784 335.909668 45.426943 335.303711 46.347168 C334.667236 47.305103 334.030762 48.263037 333.375 49.25 C332.012029 51.31966 330.650085 53.389996 329.289062 55.460938 C328.582979 56.534404 327.876895 57.607871 327.149414 58.713867 C323.642659 64.075171 320.19583 69.474412 316.75 74.875 C312.351892 81.762188 307.948324 88.645123 303.5 95.5 C298.970458 102.48117 294.482374 109.488465 290 116.5 C285.09622 124.170717 280.177953 131.831228 275.222656 139.46875 C271.122262 145.795769 267.060978 152.147632 263 158.5 C258.09622 166.170717 253.177953 173.831228 248.222656 181.46875 C244.122262 187.795769 240.060978 194.147632 236 200.5 C231.09622 208.170717 226.177953 215.831228 221.222656 223.46875 C217.122262 229.795769 213.060978 236.147632 209 242.5 C204.09622 250.170717 199.177953 257.831228 194.222656 265.46875 C190.122262 271.795769 186.060978 278.147632 182 284.5 C177.09622 292.170717 172.177953 299.831228 167.222656 307.46875 C163.122262 313.795769 159.060978 320.147632 155 326.5 C150.09622 334.170717 145.177953 341.831228 140.222656 349.46875 C136.122262 355.795769 132.060978 362.147632 128 368.5 C123.099944 376.164892 118.186331 383.820194 113.233643 391.451172 C108.336899 399.005156 103.496252 406.59512 98.65625 414.185547 C94.835513 420.168318 90.966599 426.11282 87 432 C83.847633 428.991256 81.637186 425.534862 79.3125 421.875 C78.841187 421.139993 78.369873 420.404985 77.884277 419.647705 C76.252405 417.100869 74.626192 414.550467 73 412 C71.057602 408.961292 69.11418 405.923241 67.170654 402.885254 C65.795396 400.735458 64.420565 398.585389 63.046143 396.435059 C58.376274 389.133603 53.66788 381.858502 48.934082 374.598389 C43.890812 366.853865 38.916543 359.065746 33.941406 351.277344 C29.821941 344.833267 25.677363 338.406679 21.5 332 C15.930155 323.457719 10.431116 314.871292 4.941406 306.277344 C0.821941 299.833267 -3.322637 293.406679 -7.5 287 C-13.069845 278.457719 -18.568884 269.871292 -24.058594 261.277344 C-28.178059 254.833267 -32.322637 248.406679 -36.5 242 C-42.069845 233.457719 -47.568884 224.871292 -53.058594 216.277344 C-57.178059 209.833267 -61.322637 203.406679 -65.5 197 C-71.069845 188.457719 -76.568884 179.871292 -82.058594 171.277344 C-86.178059 164.833267 -90.322637 158.406679 -94.5 152 C-100.069845 143.457719 -105.568884 134.871292 -111.058594 126.277344 C-115.178059 119.833267 -119.322637 113.406679 -123.5 107 C-128.373615 99.525504 -133.196477 92.019723 -138 84.5 C-142.9498 76.751484 -147.920204 69.0175 -152.9375 61.3125 C-153.200267 60.908822 -153.200267 60.908822 -154.530029 58.865967 C-155.538523 57.316861 -156.547066 55.767787 -157.555664 54.21875 C-159.812009 50.752614 -162.066184 47.285146 -164.3125 43.8125 C-165.030508 42.705195 -165.748516 41.597891 -166.488281 40.457031 C-168 38 -168 38 -168 37 C-167.567681 36.99009 -167.567681 36.99009 -165.379883 36.939941 C-131.593938 36.127822 -131.593938 36.127822 -116 34 C-114.910581 33.856108 -113.821162 33.712217 -112.69873 33.563965 C-74.221653 28.34241 -38.317389 17.002537 -3.011719 0.866943 C-1 0 -1 0 0 0 Z " fill="#7092BE" transform="translate(533,715)"/>
<path d="M0 0 C100.65 0 201.3 0 305 0 C303.596077 3.509808 302.531786 5.952765 300.523438 8.984375 C300.274568 9.363158 300.274568 9.363158 299.015137 11.280029 C298.473892 12.09512 297.932646 12.91021 297.375 13.75 C296.197008 15.542372 295.019969 17.33537 293.84375 19.128906 C293.531797 19.604006 293.531797 19.604006 291.953125 22.008301 C288.556615 27.210904 285.217715 32.450236 281.875 37.6875 C277.434982 44.637002 272.988902 51.58196 268.5 58.5 C263.97049 65.481191 259.482374 72.488465 255 79.5 C250.09622 87.170717 245.177953 94.831228 240.222656 102.46875 C236.122262 108.795769 232.060978 115.147632 228 121.5 C223.517625 128.511537 219.029347 135.518702 214.5 142.5 C210.174052 149.170008 205.875537 155.857476 201.587646 162.552002 C200.523067 164.213988 199.45783 165.875554 198.392578 167.537109 C197.73709 168.56127 197.081602 169.58543 196.40625 170.640625 C195.82166 171.553604 195.23707 172.466582 194.634766 173.407227 C193 176 193 176 191.750816 178.623596 C190 181 190 181 187.460139 181.620992 C186.434514 181.619094 185.408889 181.617195 184.352185 181.615239 C183.168824 181.625194 181.985464 181.63515 180.766243 181.645407 C179.459841 181.630842 178.153439 181.616278 176.807449 181.601273 C175.410673 181.603452 174.013898 181.607828 172.617134 181.614218 C168.76992 181.625431 164.923398 181.605356 161.076273 181.580328 C156.931092 181.558788 152.785952 181.566039 148.640732 181.569839 C141.455923 181.572465 134.27134 181.556743 127.086588 181.52865 C116.69861 181.48806 106.310743 181.474998 95.922695 181.46871 C79.069902 181.45776 62.217229 181.424466 45.364502 181.377197 C28.991136 181.33132 12.617802 181.295919 -3.755615 181.274658 C-4.764432 181.273345 -5.773248 181.272031 -6.812634 181.270678 C-11.873438 181.264152 -16.934243 181.257834 -21.995047 181.251618 C-63.996782 181.199763 -105.998384 181.111678 -148 181 C-148.053599 179.219972 -148.092077 177.439484 -148.124023 175.658936 C-148.147045 174.6675 -148.170067 173.676065 -148.193787 172.654587 C-148 170 -148 170 -146.015625 167.457031 C-145.102969 166.914336 -144.190313 166.371641 -143.25 165.8125 C-142.243242 165.178281 -141.236484 164.544062 -140.199219 163.890625 C-139.143477 163.266719 -138.087734 162.642812 -137 162 C-135.013681 160.698349 -133.034451 159.385817 -131.0625 158.0625 C-130.062188 157.399922 -129.061875 156.737344 -128.03125 156.054688 C-118.145394 149.353708 -109.022441 141.798052 -100 134 C-99.258789 133.360625 -98.517578 132.72125 -97.753906 132.0625 C-95.825575 130.386365 -93.911089 128.695755 -92 127 C-91.245898 126.338711 -90.491797 125.677422 -89.714844 124.996094 C-80.2114 116.577037 -71.210865 107.689841 -63 98 C-62.111898 96.985909 -61.222454 95.972992 -60.332031 94.960938 C-47.965432 80.836421 -37.183585 65.757238 -27 50 C-26.303906 48.926211 -25.607813 47.852422 -24.890625 46.746094 C-20.644609 40.017387 -16.77251 33.094073 -12.9375 26.125 C-12.454746 25.251982 -11.971992 24.378965 -11.474609 23.479492 C-7.280355 15.773045 -3.733256 7.999833 0 0 Z " fill="#AABBF7" transform="translate(712,528)"/>
<path d="M0 0 C11.102468 5.551234 20.587883 13.469169 30.061035 21.385742 C31.804142 22.836942 33.561182 24.268473 35.324219 25.695312 C43.251324 32.201171 50.547263 39.337119 57.8125 46.5625 C58.300823 47.045556 58.789146 47.528612 59.292267 48.026306 C65.992342 54.670405 72.127255 61.613411 78 69 C78.976553 70.173842 79.956453 71.344917 80.941406 72.511719 C126.784192 127.650212 155.875807 202.388071 156.203125 274.378906 C156.210185 275.421098 156.217244 276.46329 156.224518 277.537064 C156.454765 321.503054 156.454765 321.503054 153 341 C152.796006 342.154355 152.592012 343.308711 152.381836 344.498047 C147.253487 372.580794 139.603511 399.8921 128 426 C85.76 426 43.52 426 0 426 C0 285.42 0 144.84 0 0 Z " fill="#ABF5D8" transform="translate(564,78)"/>
<path d="M0 0 C102.96 0 205.92 0 312 0 C312 47.85 312 95.7 312 145 C265.576736 168.211632 215.068236 184.112653 162.699219 184.167969 C161.578605 184.171297 160.457992 184.174626 159.303421 184.178055 C156.956435 184.183078 154.609442 184.185465 152.262451 184.185303 C148.679407 184.187505 145.096663 184.205753 141.513672 184.224609 C139.221355 184.227541 136.929037 184.229527 134.636719 184.230469 C134.104887 184.234062 134.104887 184.234062 131.413498 184.252243 C118.21764 184.211718 118.21764 184.211718 114.354248 180.358643 C113.993713 179.710486 113.633179 179.062329 113.261719 178.394531 C113.050836 178.030653 113.050836 178.030653 111.983643 176.189209 C111.555916 175.404895 111.128188 174.620581 110.6875 173.8125 C109.729184 172.15213 108.768206 170.493294 107.804688 168.835938 C107.331279 168.010615 106.857871 167.185293 106.370117 166.334961 C104.478536 163.111318 102.419893 160.022695 100.3125 156.9375 C95.822753 150.301756 91.496488 143.566787 87.1875 136.8125 C82.322538 129.187832 77.441261 121.575466 72.5 114 C66.929997 105.457823 61.431115 96.87129 55.941406 88.277344 C51.821941 81.833267 47.677363 75.406679 43.5 69 C38.626385 61.525503 33.803636 54.019652 29 46.5 C24.024303 38.713272 19.034578 30.936315 14 23.1875 C13.471887 22.374263 12.943774 21.561025 12.399658 20.723145 C8.765221 15.140677 5.064931 9.607921 1.292969 4.117188 C0 2 0 2 0 0 Z " fill="#B7EDF0" transform="translate(221,528)"/>
</g></svg>
