<svg xmlns="http://www.w3.org/2000/svg" viewBox="-8.8 -12.0 579.1 293.1" fill="none">
<g transform="translate(194.22,0.00) scale(0.134432)">
<path d="M0 0 C200.31 0 400.62 0 607 0 C607 221.1 607 442.2 607 670 C529.12 670 451.24 670 371 670 C372.362548 666.593631 373.421122 664.107931 375.328125 661.128906 C375.790898 660.40123 376.253672 659.673555 376.730469 658.923828 C377.231914 658.14459 377.733359 657.365352 378.25 656.5625 C378.777227 655.735566 379.304453 654.908633 379.847656 654.056641 C380.97809 652.284216 382.110308 650.512928 383.244141 648.742676 C385.58264 645.089909 387.91014 641.430192 390.237793 637.770508 C391.4186 635.914065 392.599921 634.057948 393.781738 632.202148 C399.545879 623.150337 405.275631 614.076995 411 605 C417.904756 594.051294 424.830494 583.116436 431.78418 572.19873 C437.546956 563.147707 443.276375 554.075814 449 545 C455.314192 534.987737 461.641171 524.983989 468 515 C474.357922 505.015475 480.705381 495.024591 487 485 C487.42104 484.329849 487.84208 483.659697 488.275879 482.969238 C489.417139 481.148646 490.553485 479.325112 491.6875 477.5 C492.310117 476.499687 492.932734 475.499375 493.574219 474.46875 C495 472 495 472 496 469 C495.67 468.34 495.34 467.68 495 467 C491.864611 465.95487 489.674186 465.869914 486.38342 465.861335 C485.795223 465.858598 485.795223 465.858598 482.81859 465.844746 C481.519969 465.843767 480.221349 465.842789 478.883377 465.841782 C477.494854 465.837217 476.106331 465.832217 474.717811 465.826818 C470.893663 465.813214 467.069524 465.805812 463.245359 465.799391 C459.124708 465.791397 455.004076 465.777696 450.883438 465.764679 C443.741291 465.742902 436.599142 465.724762 429.45698 465.709074 C419.130541 465.686386 408.804123 465.658242 398.477701 465.628755 C381.724808 465.581065 364.971906 465.537805 348.218994 465.497314 C331.94262 465.457966 315.666254 465.416542 299.389893 465.372314 C298.38705 465.36959 297.384208 465.366866 296.350976 465.364059 C291.32014 465.35038 286.289304 465.336659 281.258468 465.322919 C239.505661 465.208933 197.752838 465.102128 156 465 C156.255617 464.214639 156.511234 463.429277 156.774597 462.620117 C157.740959 459.646258 158.704659 456.671552 159.666687 453.696289 C160.280852 451.799486 160.897955 449.903636 161.515137 448.007812 C169.773744 422.441451 175.521334 395.780364 178 369 C178.0854 368.123196 178.170801 367.246392 178.258789 366.343018 C179.307375 354.063476 179.243686 341.7533 179.25 329.4375 C179.250675 328.255037 179.251349 327.072574 179.252045 325.854279 C179.235896 308.030415 178.749875 290.638718 176 273 C175.916855 272.440789 175.916855 272.440789 175.496094 269.61084 C165.960555 206.791066 141.271886 146.770128 103 96 C102.140418 94.842602 101.28103 93.685059 100.421875 92.527344 C85.700788 72.870761 68.676876 53.959672 50 38 C49.064141 37.186602 48.128281 36.373203 47.164062 35.535156 C34.362489 24.47374 20.820241 14.698433 6.654297 5.455811 C5.788691 4.889026 4.923086 4.322241 4.03125 3.738281 C3.253301 3.233372 2.475352 2.728462 1.673828 2.208252 C1.121465 1.809529 0.569102 1.410806 0 1 C0 0.67 0 0.34 0 0 Z " fill="#C8BFE7" transform="translate(566,39)"/>
<path d="M0 0 C1.094897 0.001823 2.189795 0.003646 3.317871 0.005524 C20.190997 0.052711 36.753519 0.571163 53.4375 3.3125 C54.522407 3.489424 55.607314 3.666348 56.725098 3.848633 C93.469916 10.037796 130.944758 20.745219 163.4375 39.3125 C163.4375 186.1625 163.4375 333.0125 163.4375 484.3125 C-10.9375 484.75 -10.9375 484.75 -66.095215 484.880615 C-88.239502 484.939575 -88.239502 484.939575 -98.59024 484.968399 C-105.854316 484.988283 -113.118391 485.005437 -120.382477 485.020767 C-128.750441 485.038436 -137.118388 485.059509 -145.486333 485.084874 C-149.771228 485.097753 -154.056111 485.109045 -158.341019 485.11597 C-162.209314 485.12225 -166.077568 485.133036 -169.945841 485.147545 C-171.350286 485.151994 -172.754738 485.154732 -174.15919 485.155659 C-176.06145 485.157158 -177.963701 485.165298 -179.865942 485.173835 C-180.925362 485.176493 -181.984781 485.179151 -183.076305 485.181889 C-185.5625 485.3125 -185.5625 485.3125 -187.5625 486.3125 C-187.288436 493.258615 -184.169237 497.697791 -180.375 503.375 C-179.092128 505.340937 -177.809585 507.307089 -176.527344 509.273438 C-176.197908 509.774077 -176.197908 509.774077 -174.530762 512.307617 C-171.451853 517.00809 -168.446149 521.754377 -165.4375 526.5 C-164.270991 528.333433 -163.104325 530.166768 -161.9375 532 C-156.304234 540.861462 -150.704743 549.744245 -145.103516 558.625977 C-139.275054 567.866695 -133.43166 577.097566 -127.5625 586.3125 C-120.713781 597.065401 -113.904037 607.842553 -107.103516 618.625977 C-101.275053 627.866696 -95.431507 637.097468 -89.5625 646.3125 C-70.363238 676.46651 -70.363238 676.46651 -64.5625 686.3125 C-73.116938 685.843248 -81.179381 683.867813 -89.4375 681.6875 C-89.780869 681.597522 -89.780869 681.597522 -91.518524 681.142181 C-134.485681 669.839102 -175.153029 650.208515 -210.5625 623.3125 C-211.558945 622.57 -212.555391 621.8275 -213.582031 621.0625 C-226.808813 611.136848 -238.873225 600.183009 -250.5625 588.5 C-250.809909 588.253089 -250.809909 588.253089 -252.061951 587.003571 C-302.480936 536.573062 -335.130853 469.47534 -346.5625 399.3125 C-346.726211 398.322822 -346.889922 397.333145 -347.058594 396.313477 C-352.19405 363.45292 -352.080737 327.106905 -346.5625 294.3125 C-346.396211 293.275127 -346.229922 292.237754 -346.058594 291.168945 C-335.784002 228.360745 -308.238859 166.788873 -264.828125 119.789062 C-262.980175 117.769062 -261.190755 115.719785 -259.40625 113.644531 C-248.867409 101.573588 -237.284029 90.066909 -224.5625 80.3125 C-223.416422 79.381099 -222.273411 78.445916 -221.132812 77.507812 C-200.043459 60.21977 -176.931272 46.461412 -152.5625 34.3125 C-151.708013 33.880825 -150.853525 33.44915 -149.973145 33.004395 C-121.083724 18.556864 -89.036022 9.553703 -57.3125 4.0625 C-56.439482 3.911035 -55.566465 3.75957 -54.666992 3.603516 C-36.506166 0.681388 -18.366269 -0.063752 0 0 Z " fill="#44DB72" transform="translate(369.5625,19.6875)"/>
<path d="M0 0 C0 11.22 0 22.44 0 34 C112.86 34 225.72 34 342 34 C340.503848 37.740379 339.251371 40.375236 337.085938 43.640625 C336.497803 44.533784 335.909668 45.426943 335.303711 46.347168 C334.667236 47.305103 334.030762 48.263037 333.375 49.25 C332.012029 51.31966 330.650085 53.389996 329.289062 55.460938 C328.582979 56.534404 327.876895 57.607871 327.149414 58.713867 C323.642659 64.075171 320.19583 69.474412 316.75 74.875 C312.351892 81.762188 307.948324 88.645123 303.5 95.5 C298.970458 102.48117 294.482374 109.488465 290 116.5 C285.09622 124.170717 280.177953 131.831228 275.222656 139.46875 C271.122262 145.795769 267.060978 152.147632 263 158.5 C258.09622 166.170717 253.177953 173.831228 248.222656 181.46875 C244.122262 187.795769 240.060978 194.147632 236 200.5 C231.09622 208.170717 226.177953 215.831228 221.222656 223.46875 C217.122262 229.795769 213.060978 236.147632 209 242.5 C204.09622 250.170717 199.177953 257.831228 194.222656 265.46875 C190.122262 271.795769 186.060978 278.147632 182 284.5 C177.09622 292.170717 172.177953 299.831228 167.222656 307.46875 C163.122262 313.795769 159.060978 320.147632 155 326.5 C150.09622 334.170717 145.177953 341.831228 140.222656 349.46875 C136.122262 355.795769 132.060978 362.147632 128 368.5 C123.099944 376.164892 118.186331 383.820194 113.233643 391.451172 C108.336899 399.005156 103.496252 406.59512 98.65625 414.185547 C94.835513 420.168318 90.966599 426.11282 87 432 C83.847633 428.991256 81.637186 425.534862 79.3125 421.875 C78.841187 421.139993 78.369873 420.404985 77.884277 419.647705 C76.252405 417.100869 74.626192 414.550467 73 412 C71.057602 408.961292 69.11418 405.923241 67.170654 402.885254 C65.795396 400.735458 64.420565 398.585389 63.046143 396.435059 C58.376274 389.133603 53.66788 381.858502 48.934082 374.598389 C43.890812 366.853865 38.916543 359.065746 33.941406 351.277344 C29.821941 344.833267 25.677363 338.406679 21.5 332 C15.930155 323.457719 10.431116 314.871292 4.941406 306.277344 C0.821941 299.833267 -3.322637 293.406679 -7.5 287 C-13.069845 278.457719 -18.568884 269.871292 -24.058594 261.277344 C-28.178059 254.833267 -32.322637 248.406679 -36.5 242 C-42.069845 233.457719 -47.568884 224.871292 -53.058594 216.277344 C-57.178059 209.833267 -61.322637 203.406679 -65.5 197 C-71.069845 188.457719 -76.568884 179.871292 -82.058594 171.277344 C-86.178059 164.833267 -90.322637 158.406679 -94.5 152 C-100.069845 143.457719 -105.568884 134.871292 -111.058594 126.277344 C-115.178059 119.833267 -119.322637 113.406679 -123.5 107 C-128.373615 99.525504 -133.196477 92.019723 -138 84.5 C-142.9498 76.751484 -147.920204 69.0175 -152.9375 61.3125 C-153.200267 60.908822 -153.200267 60.908822 -154.530029 58.865967 C-155.538523 57.316861 -156.547066 55.767787 -157.555664 54.21875 C-159.812009 50.752614 -162.066184 47.285146 -164.3125 43.8125 C-165.030508 42.705195 -165.748516 41.597891 -166.488281 40.457031 C-168 38 -168 38 -168 37 C-167.567681 36.99009 -167.567681 36.99009 -165.379883 36.939941 C-131.593938 36.127822 -131.593938 36.127822 -116 34 C-114.910581 33.856108 -113.821162 33.712217 -112.69873 33.563965 C-74.221653 28.34241 -38.317389 17.002537 -3.011719 0.866943 C-1 0 -1 0 0 0 Z " fill="#7092BE" transform="translate(533,715)"/>
<path d="M0 0 C100.65 0 201.3 0 305 0 C303.596077 3.509808 302.531786 5.952765 300.523438 8.984375 C300.274568 9.363158 300.274568 9.363158 299.015137 11.280029 C298.473892 12.09512 297.932646 12.91021 297.375 13.75 C296.197008 15.542372 295.019969 17.33537 293.84375 19.128906 C293.531797 19.604006 293.531797 19.604006 291.953125 22.008301 C288.556615 27.210904 285.217715 32.450236 281.875 37.6875 C277.434982 44.637002 272.988902 51.58196 268.5 58.5 C263.97049 65.481191 259.482374 72.488465 255 79.5 C250.09622 87.170717 245.177953 94.831228 240.222656 102.46875 C236.122262 108.795769 232.060978 115.147632 228 121.5 C223.517625 128.511537 219.029347 135.518702 214.5 142.5 C210.174052 149.170008 205.875537 155.857476 201.587646 162.552002 C200.523067 164.213988 199.45783 165.875554 198.392578 167.537109 C197.73709 168.56127 197.081602 169.58543 196.40625 170.640625 C195.82166 171.553604 195.23707 172.466582 194.634766 173.407227 C193 176 193 176 191.750816 178.623596 C190 181 190 181 187.460139 181.620992 C186.434514 181.619094 185.408889 181.617195 184.352185 181.615239 C183.168824 181.625194 181.985464 181.63515 180.766243 181.645407 C179.459841 181.630842 178.153439 181.616278 176.807449 181.601273 C175.410673 181.603452 174.013898 181.607828 172.617134 181.614218 C168.76992 181.625431 164.923398 181.605356 161.076273 181.580328 C156.931092 181.558788 152.785952 181.566039 148.640732 181.569839 C141.455923 181.572465 134.27134 181.556743 127.086588 181.52865 C116.69861 181.48806 106.310743 181.474998 95.922695 181.46871 C79.069902 181.45776 62.217229 181.424466 45.364502 181.377197 C28.991136 181.33132 12.617802 181.295919 -3.755615 181.274658 C-4.764432 181.273345 -5.773248 181.272031 -6.812634 181.270678 C-11.873438 181.264152 -16.934243 181.257834 -21.995047 181.251618 C-63.996782 181.199763 -105.998384 181.111678 -148 181 C-148.053599 179.219972 -148.092077 177.439484 -148.124023 175.658936 C-148.147045 174.6675 -148.170067 173.676065 -148.193787 172.654587 C-148 170 -148 170 -146.015625 167.457031 C-145.102969 166.914336 -144.190313 166.371641 -143.25 165.8125 C-142.243242 165.178281 -141.236484 164.544062 -140.199219 163.890625 C-139.143477 163.266719 -138.087734 162.642812 -137 162 C-135.013681 160.698349 -133.034451 159.385817 -131.0625 158.0625 C-130.062188 157.399922 -129.061875 156.737344 -128.03125 156.054688 C-118.145394 149.353708 -109.022441 141.798052 -100 134 C-99.258789 133.360625 -98.517578 132.72125 -97.753906 132.0625 C-95.825575 130.386365 -93.911089 128.695755 -92 127 C-91.245898 126.338711 -90.491797 125.677422 -89.714844 124.996094 C-80.2114 116.577037 -71.210865 107.689841 -63 98 C-62.111898 96.985909 -61.222454 95.972992 -60.332031 94.960938 C-47.965432 80.836421 -37.183585 65.757238 -27 50 C-26.303906 48.926211 -25.607813 47.852422 -24.890625 46.746094 C-20.644609 40.017387 -16.77251 33.094073 -12.9375 26.125 C-12.454746 25.251982 -11.971992 24.378965 -11.474609 23.479492 C-7.280355 15.773045 -3.733256 7.999833 0 0 Z " fill="#AABBF7" transform="translate(712,528)"/>
<path d="M0 0 C11.102468 5.551234 20.587883 13.469169 30.061035 21.385742 C31.804142 22.836942 33.561182 24.268473 35.324219 25.695312 C43.251324 32.201171 50.547263 39.337119 57.8125 46.5625 C58.300823 47.045556 58.789146 47.528612 59.292267 48.026306 C65.992342 54.670405 72.127255 61.613411 78 69 C78.976553 70.173842 79.956453 71.344917 80.941406 72.511719 C126.784192 127.650212 155.875807 202.388071 156.203125 274.378906 C156.210185 275.421098 156.217244 276.46329 156.224518 277.537064 C156.454765 321.503054 156.454765 321.503054 153 341 C152.796006 342.154355 152.592012 343.308711 152.381836 344.498047 C147.253487 372.580794 139.603511 399.8921 128 426 C85.76 426 43.52 426 0 426 C0 285.42 0 144.84 0 0 Z " fill="#ABF5D8" transform="translate(564,78)"/>
<path d="M0 0 C102.96 0 205.92 0 312 0 C312 47.85 312 95.7 312 145 C265.576736 168.211632 215.068236 184.112653 162.699219 184.167969 C161.578605 184.171297 160.457992 184.174626 159.303421 184.178055 C156.956435 184.183078 154.609442 184.185465 152.262451 184.185303 C148.679407 184.187505 145.096663 184.205753 141.513672 184.224609 C139.221355 184.227541 136.929037 184.229527 134.636719 184.230469 C134.104887 184.234062 134.104887 184.234062 131.413498 184.252243 C118.21764 184.211718 118.21764 184.211718 114.354248 180.358643 C113.993713 179.710486 113.633179 179.062329 113.261719 178.394531 C113.050836 178.030653 113.050836 178.030653 111.983643 176.189209 C111.555916 175.404895 111.128188 174.620581 110.6875 173.8125 C109.729184 172.15213 108.768206 170.493294 107.804688 168.835938 C107.331279 168.010615 106.857871 167.185293 106.370117 166.334961 C104.478536 163.111318 102.419893 160.022695 100.3125 156.9375 C95.822753 150.301756 91.496488 143.566787 87.1875 136.8125 C82.322538 129.187832 77.441261 121.575466 72.5 114 C66.929997 105.457823 61.431115 96.87129 55.941406 88.277344 C51.821941 81.833267 47.677363 75.406679 43.5 69 C38.626385 61.525503 33.803636 54.019652 29 46.5 C24.024303 38.713272 19.034578 30.936315 14 23.1875 C13.471887 22.374263 12.943774 21.561025 12.399658 20.723145 C8.765221 15.140677 5.064931 9.607921 1.292969 4.117188 C0 2 0 2 0 0 Z " fill="#B7EDF0" transform="translate(221,528)"/>
</g>
<path fill="#3f4657" d="M61.9921875 -56.646484375Q66.708984375 -52.333984375 69.4716796875 -46.224609375Q72.234375 -40.115234375 72.234375 -32.298828125Q72.234375 -21.203125 66.6865234375 -12.802734375Q61.138671875 -4.40234375 50.986328125 -0.71875Q51.12109375 4.626953125 54.220703125 8.53515625Q57.3203125 12.443359375 61.54296875 12.443359375Q64.1484375 12.443359375 66.1025390625 12.12890625Q68.056640625 11.814453125 69.62890625 11.41015625V15.36328125Q67.068359375 16.44140625 62.037109375 17.5419921875Q57.005859375 18.642578125 51.48046875 18.642578125Q43.93359375 18.642578125 39.0595703125 14.1279296875Q34.185546875 9.61328125 33.6015625 1.52734375Q27.22265625 0.8984375 21.7421875 -1.6171875Q16.26171875 -4.1328125 12.083984375 -8.400390625Q7.99609375 -12.623046875 5.5927734375 -18.41796875Q3.189453125 -24.212890625 3.189453125 -31.17578125Q3.189453125 -38.9921875 5.8623046875 -45.3486328125Q8.53515625 -51.705078125 13.20703125 -56.2421875Q17.833984375 -60.689453125 24.1904296875 -63.0927734375Q30.546875 -65.49609375 37.734375 -65.49609375Q44.876953125 -65.49609375 51.1435546875 -63.16015625Q57.41015625 -60.82421875 61.9921875 -56.646484375ZM50.447265625 -11.05078125Q52.46875 -15.138671875 53.3671875 -20.3046875Q54.265625 -25.470703125 54.265625 -31.984375Q54.265625 -37.509765625 53.4794921875 -42.7431640625Q52.693359375 -47.9765625 50.806640625 -52.064453125Q48.875 -56.15234375 45.685546875 -58.623046875Q42.49609375 -61.09375 37.734375 -61.09375Q29.603515625 -61.09375 25.380859375 -53.3896484375Q21.158203125 -45.685546875 21.158203125 -31.625Q21.158203125 -25.650390625 22.0791015625 -20.349609375Q23.0 -15.048828125 24.9765625 -11.095703125Q26.998046875 -7.09765625 30.09765625 -4.8740234375Q33.197265625 -2.650390625 37.734375 -2.650390625Q42.181640625 -2.650390625 45.37109375 -4.896484375Q48.560546875 -7.142578125 50.447265625 -11.05078125Z M136.65234375 -0.943359375 115.224609375 0.359375 114.55078125 -0.26953125V-6.154296875H114.28125Q112.75390625 -4.76171875 111.2939453125 -3.4365234375Q109.833984375 -2.111328125 107.8125 -1.033203125Q105.521484375 0.1796875 103.4775390625 0.763671875Q101.43359375 1.34765625 97.525390625 1.34765625Q90.7421875 1.34765625 87.1259765625 -2.740234375Q83.509765625 -6.828125 83.509765625 -14.28515625V-34.5Q83.509765625 -36.251953125 82.8359375 -37.3525390625Q82.162109375 -38.453125 81.0390625 -39.306640625Q80.140625 -39.98046875 78.703125 -40.2724609375Q77.265625 -40.564453125 76.09765625 -40.654296875V-43.93359375L97.884765625 -45.1015625L98.37890625 -44.427734375V-14.5546875Q98.37890625 -9.927734375 100.1533203125 -7.7265625Q101.927734375 -5.525390625 105.02734375 -5.525390625Q108.216796875 -5.525390625 110.7548828125 -7.1875Q113.29296875 -8.849609375 114.4609375 -10.736328125V-34.94921875Q114.4609375 -36.4765625 113.876953125 -37.689453125Q113.29296875 -38.90234375 112.169921875 -39.666015625Q111.361328125 -40.205078125 109.8564453125 -40.384765625Q108.3515625 -40.564453125 106.779296875 -40.654296875V-43.93359375L128.56640625 -45.1015625L129.240234375 -44.427734375V-9.748046875Q129.240234375 -8.17578125 129.869140625 -7.0751953125Q130.498046875 -5.974609375 131.7109375 -5.2109375Q132.564453125 -4.671875 133.9345703125 -4.4697265625Q135.3046875 -4.267578125 136.65234375 -4.22265625Z M191.63671875 -0.943359375Q189.66015625 -0.08984375 186.96484375 0.62890625Q184.26953125 1.34765625 181.259765625 1.34765625Q175.734375 1.34765625 173.12890625 -0.2919921875Q170.5234375 -1.931640625 169.580078125 -4.986328125H169.310546875Q167.783203125 -3.458984375 166.3681640625 -2.380859375Q164.953125 -1.302734375 163.3359375 -0.5390625Q161.224609375 0.44921875 159.2705078125 0.9208984375Q157.31640625 1.392578125 153.8125 1.392578125Q148.6015625 1.392578125 144.91796875 -1.6845703125Q141.234375 -4.76171875 141.234375 -9.837890625Q141.234375 -12.7578125 142.04296875 -14.8017578125Q142.8515625 -16.845703125 144.333984375 -18.41796875Q145.681640625 -19.85546875 147.4560546875 -20.798828125Q149.23046875 -21.7421875 151.341796875 -22.55078125Q155.384765625 -24.033203125 161.044921875 -25.6279296875Q166.705078125 -27.22265625 169.310546875 -28.48046875V-32.79296875Q169.310546875 -33.916015625 169.130859375 -35.7578125Q168.951171875 -37.599609375 168.3671875 -38.857421875Q167.73828125 -40.294921875 166.390625 -41.283203125Q165.04296875 -42.271484375 162.841796875 -42.271484375Q160.865234375 -42.271484375 159.5400390625 -41.7099609375Q158.21484375 -41.1484375 157.40625 -40.564453125Q157.541015625 -39.666015625 158.169921875 -37.82421875Q158.798828125 -35.982421875 158.798828125 -34.275390625Q158.798828125 -33.51171875 158.39453125 -32.3662109375Q157.990234375 -31.220703125 157.2265625 -30.546875Q156.193359375 -29.6484375 154.9130859375 -29.154296875Q153.6328125 -28.66015625 150.982421875 -28.66015625Q147.208984375 -28.66015625 145.27734375 -30.4794921875Q143.345703125 -32.298828125 143.345703125 -35.21875Q143.345703125 -37.734375 145.3447265625 -39.7333984375Q147.34375 -41.732421875 150.21875 -43.03515625Q153.048828125 -44.3828125 156.732421875 -45.1240234375Q160.416015625 -45.865234375 163.560546875 -45.865234375Q167.91796875 -45.865234375 171.556640625 -45.3486328125Q175.1953125 -44.83203125 178.115234375 -43.21484375Q180.900390625 -41.642578125 182.5400390625 -38.6552734375Q184.1796875 -35.66796875 184.1796875 -30.861328125Q184.1796875 -25.78515625 183.9775390625 -18.822265625Q183.775390625 -11.859375 183.775390625 -9.658203125Q183.775390625 -7.63671875 184.3818359375 -6.46875Q184.98828125 -5.30078125 186.24609375 -4.716796875Q187.009765625 -4.357421875 188.6494140625 -4.2900390625Q190.2890625 -4.22265625 191.63671875 -4.22265625ZM169.310546875 -24.34765625Q166.794921875 -23.494140625 164.32421875 -22.3935546875Q161.853515625 -21.29296875 160.28125 -20.080078125Q158.619140625 -18.822265625 157.67578125 -16.8681640625Q156.732421875 -14.9140625 156.732421875 -12.263671875Q156.732421875 -8.759765625 158.3271484375 -7.1875Q159.921875 -5.615234375 162.2578125 -5.615234375Q164.728515625 -5.615234375 166.3232421875 -6.6259765625Q167.91796875 -7.63671875 169.130859375 -9.119140625Z M268.767578125 0.0H244.330078125Q237.99609375 -9.703125 233.7958984375 -15.453125Q229.595703125 -21.203125 223.3515625 -28.75H220.880859375V-9.388671875Q220.880859375 -7.771484375 221.4873046875 -6.6484375Q222.09375 -5.525390625 223.80078125 -4.76171875Q224.654296875 -4.40234375 226.4736328125 -4.0205078125Q228.29296875 -3.638671875 229.595703125 -3.50390625V0.0H195.58984375V-3.50390625Q196.892578125 -3.638671875 199.0263671875 -3.8857421875Q201.16015625 -4.1328125 202.05859375 -4.4921875Q203.765625 -5.2109375 204.349609375 -6.3115234375Q204.93359375 -7.412109375 204.93359375 -9.119140625V-54.0859375Q204.93359375 -55.703125 204.439453125 -56.78125Q203.9453125 -57.859375 202.05859375 -58.66796875Q200.62109375 -59.251953125 198.6669921875 -59.65625Q196.712890625 -60.060546875 195.58984375 -60.240234375V-63.744140625H231.34765625Q243.341796875 -63.744140625 249.5634765625 -59.9931640625Q255.78515625 -56.2421875 255.78515625 -48.650390625Q255.78515625 -41.95703125 251.9443359375 -37.8916015625Q248.103515625 -33.826171875 240.2421875 -31.53515625Q243.296875 -27.58203125 247.3623046875 -22.37109375Q251.427734375 -17.16015625 255.830078125 -11.724609375Q257.22265625 -9.97265625 259.6259765625 -7.4345703125Q262.029296875 -4.896484375 263.87109375 -4.3125Q264.904296875 -3.998046875 266.4990234375 -3.7734375Q268.09375 -3.548828125 268.767578125 -3.50390625ZM238.17578125 -47.392578125Q238.17578125 -53.771484375 234.6044921875 -56.7138671875Q231.033203125 -59.65625 224.4296875 -59.65625H220.880859375V-32.97265625H224.294921875Q230.8984375 -32.97265625 234.537109375 -36.431640625Q238.17578125 -39.890625 238.17578125 -47.392578125Z M302.369140625 1.70703125Q295.361328125 1.70703125 289.251953125 -0.5615234375Q283.142578125 -2.830078125 278.60546875 -7.142578125Q274.158203125 -11.365234375 271.59765625 -17.5869140625Q269.037109375 -23.80859375 269.037109375 -31.265625Q269.037109375 -38.677734375 271.6201171875 -44.9892578125Q274.203125 -51.30078125 278.875 -55.927734375Q283.45703125 -60.46484375 289.880859375 -62.9580078125Q296.3046875 -65.451171875 303.626953125 -65.451171875Q308.927734375 -65.451171875 313.28515625 -64.1708984375Q317.642578125 -62.890625 320.65234375 -61.2734375L323.4375 -63.744140625H327.345703125L327.75 -40.474609375H323.796875Q320.427734375 -51.12109375 315.7109375 -56.107421875Q310.994140625 -61.09375 304.2109375 -61.09375Q295.765625 -61.09375 291.36328125 -53.6591796875Q286.9609375 -46.224609375 286.9609375 -32.79296875Q286.9609375 -25.201171875 288.4658203125 -19.8330078125Q289.970703125 -14.46484375 292.396484375 -11.185546875Q295.001953125 -7.771484375 298.55078125 -6.1767578125Q302.099609375 -4.58203125 306.412109375 -4.58203125Q312.701171875 -4.58203125 317.6201171875 -7.99609375Q322.5390625 -11.41015625 326.58203125 -18.328125L330.4453125 -15.9921875Q328.513671875 -12.0390625 326.04296875 -8.9169921875Q323.572265625 -5.794921875 320.337890625 -3.548828125Q316.7890625 -1.078125 312.4990234375 0.314453125Q308.208984375 1.70703125 302.369140625 1.70703125Z M361.486328125 1.70703125Q355.646484375 1.70703125 350.5927734375 0.26953125Q345.5390625 -1.16796875 342.03515625 -3.14453125L338.935546875 0.0H335.1171875L334.533203125 -23.044921875H338.396484375Q339.69921875 -19.765625 341.720703125 -16.126953125Q343.7421875 -12.48828125 346.392578125 -9.61328125Q349.1328125 -6.603515625 352.5244140625 -4.716796875Q355.916015625 -2.830078125 360.453125 -2.830078125Q366.5625 -2.830078125 369.8193359375 -5.8173828125Q373.076171875 -8.8046875 373.076171875 -13.341796875Q373.076171875 -17.0703125 370.3134765625 -19.6083984375Q367.55078125 -22.146484375 361.755859375 -23.98828125Q357.982421875 -25.201171875 354.8154296875 -26.234375Q351.6484375 -27.267578125 348.86328125 -28.345703125Q342.439453125 -30.90625 339.3173828125 -35.66796875Q336.1953125 -40.4296875 336.1953125 -46.314453125Q336.1953125 -50.04296875 337.8125 -53.4794921875Q339.4296875 -56.916015625 342.529296875 -59.65625Q345.494140625 -62.216796875 350.12109375 -63.833984375Q354.748046875 -65.451171875 360.18359375 -65.451171875Q365.484375 -65.451171875 370.111328125 -63.9912109375Q374.73828125 -62.53125 377.388671875 -61.048828125L380.12890625 -63.744140625H384.037109375L384.396484375 -42.001953125H380.533203125Q379.185546875 -45.505859375 377.3662109375 -49.1669921875Q375.546875 -52.828125 373.525390625 -55.25390625Q371.32421875 -57.859375 368.44921875 -59.4091796875Q365.57421875 -60.958984375 361.7109375 -60.958984375Q356.859375 -60.958984375 353.7822265625 -58.21875Q350.705078125 -55.478515625 350.705078125 -51.435546875Q350.705078125 -47.6171875 353.3779296875 -45.19140625Q356.05078125 -42.765625 361.7109375 -40.923828125Q365.03515625 -39.80078125 368.494140625 -38.677734375Q371.953125 -37.5546875 374.6484375 -36.521484375Q381.162109375 -34.005859375 384.5537109375 -29.5810546875Q387.9453125 -25.15625 387.9453125 -18.59765625Q387.9453125 -14.46484375 386.013671875 -10.6015625Q384.08203125 -6.73828125 380.802734375 -4.177734375Q377.208984375 -1.34765625 372.4921875 0.1796875Q367.775390625 1.70703125 361.486328125 1.70703125Z M400.3916015625 0.0V-23.853515625H404.0302734375V-20.4619140625Q406.658203125 -24.392578125 411.6220703125 -24.392578125Q413.7783203125 -24.392578125 415.58642578125 -23.61767578125Q417.39453125 -22.8427734375 418.29296875 -21.5849609375Q419.19140625 -20.3271484375 419.55078125 -18.59765625Q419.775390625 -17.474609375 419.775390625 -14.6669921875V0.0H415.732421875V-14.509765625Q415.732421875 -16.98046875 415.2607421875 -18.20458984375Q414.7890625 -19.4287109375 413.58740234375 -20.15869140625Q412.3857421875 -20.888671875 410.7685546875 -20.888671875Q408.185546875 -20.888671875 406.31005859375 -19.2490234375Q404.4345703125 -17.609375 404.4345703125 -13.02734375V0.0Z M442.3037109375 -7.681640625 446.4814453125 -7.1650390625Q445.4931640625 -3.50390625 442.8203125 -1.482421875Q440.1474609375 0.5390625 435.9921875 0.5390625Q430.7587890625 0.5390625 427.69287109375 -2.68408203125Q424.626953125 -5.9072265625 424.626953125 -11.724609375Q424.626953125 -17.744140625 427.7265625 -21.068359375Q430.826171875 -24.392578125 435.767578125 -24.392578125Q440.5517578125 -24.392578125 443.583984375 -21.1357421875Q446.6162109375 -17.87890625 446.6162109375 -11.9716796875Q446.6162109375 -11.6123046875 446.59375 -10.8935546875H428.8046875Q429.029296875 -6.962890625 431.0283203125 -4.8740234375Q433.02734375 -2.78515625 436.0146484375 -2.78515625Q438.23828125 -2.78515625 439.810546875 -3.953125Q441.3828125 -5.12109375 442.3037109375 -7.681640625ZM429.029296875 -14.2177734375H442.3486328125Q442.0791015625 -17.2275390625 440.8212890625 -18.732421875Q438.8896484375 -21.068359375 435.8125 -21.068359375Q433.02734375 -21.068359375 431.12939453125 -19.2041015625Q429.2314453125 -17.33984375 429.029296875 -14.2177734375Z M460.384765625 -3.6162109375 460.96875 -0.044921875Q459.26171875 0.314453125 457.9140625 0.314453125Q455.712890625 0.314453125 454.5 -0.3818359375Q453.287109375 -1.078125 452.79296875 -2.21240234375Q452.298828125 -3.3466796875 452.298828125 -6.9853515625V-20.708984375H449.333984375V-23.853515625H452.298828125V-29.7607421875L456.3193359375 -32.1865234375V-23.853515625H460.384765625V-20.708984375H456.3193359375V-6.7607421875Q456.3193359375 -5.03125 456.53271484375 -4.537109375Q456.74609375 -4.04296875 457.22900390625 -3.7509765625Q457.7119140625 -3.458984375 458.6103515625 -3.458984375Q459.2841796875 -3.458984375 460.384765625 -3.6162109375Z M468.740234375 0.0 461.4404296875 -23.853515625H465.6181640625L469.4140625 -10.0849609375L470.8291015625 -4.9638671875Q470.9189453125 -5.345703125 472.064453125 -9.8828125L475.8603515625 -23.853515625H480.015625L483.5869140625 -10.017578125L484.77734375 -5.4580078125L486.1474609375 -10.0625L490.2353515625 -23.853515625H494.166015625L486.708984375 0.0H482.5087890625L478.712890625 -14.28515625L477.7919921875 -18.3505859375L472.962890625 0.0Z M496.052734375 -11.9267578125Q496.052734375 -18.552734375 499.736328125 -21.7421875Q502.8134765625 -24.392578125 507.23828125 -24.392578125Q512.1572265625 -24.392578125 515.279296875 -21.16943359375Q518.4013671875 -17.9462890625 518.4013671875 -12.263671875Q518.4013671875 -7.6591796875 517.02001953125 -5.02001953125Q515.638671875 -2.380859375 512.99951171875 -0.9208984375Q510.3603515625 0.5390625 507.23828125 0.5390625Q502.2294921875 0.5390625 499.14111328125 -2.6728515625Q496.052734375 -5.884765625 496.052734375 -11.9267578125ZM500.2080078125 -11.9267578125Q500.2080078125 -7.3447265625 502.20703125 -5.06494140625Q504.2060546875 -2.78515625 507.23828125 -2.78515625Q510.248046875 -2.78515625 512.2470703125 -5.076171875Q514.24609375 -7.3671875 514.24609375 -12.0615234375Q514.24609375 -16.486328125 512.23583984375 -18.76611328125Q510.2255859375 -21.0458984375 507.23828125 -21.0458984375Q504.2060546875 -21.0458984375 502.20703125 -18.77734375Q500.2080078125 -16.5087890625 500.2080078125 -11.9267578125Z M523.095703125 0.0V-23.853515625H526.734375V-20.2373046875Q528.126953125 -22.775390625 529.30615234375 -23.583984375Q530.4853515625 -24.392578125 531.900390625 -24.392578125Q533.9443359375 -24.392578125 536.0556640625 -23.08984375L534.6630859375 -19.3388671875Q533.1806640625 -20.21484375 531.6982421875 -20.21484375Q530.373046875 -20.21484375 529.3173828125 -19.41748046875Q528.26171875 -18.6201171875 527.8125 -17.205078125Q527.138671875 -15.048828125 527.138671875 -12.48828125V0.0Z M538.4814453125 0.0V-32.927734375H542.5244140625V-14.150390625L552.0927734375 -23.853515625H557.326171875L548.20703125 -15.00390625L558.2470703125 0.0H553.2607421875L545.376953125 -12.1962890625L542.5244140625 -9.4560546875V0.0Z" transform="translate(0,250.50)"/>
</svg>
