<svg xmlns="http://www.w3.org/2000/svg" viewBox="0 0 620 620" fill="none">
<defs>
<clipPath id="cc"><circle cx="261" cy="180" r="140"/></clipPath>
<clipPath id="cs"><rect x="273" y="74" width="226" height="226"/></clipPath>
<mask id="grout">
<rect x="0" y="0" width="620" height="620" fill="white"/>
<rect x="326.0" y="0" width="8" height="322" fill="black"/>
<rect x="0" y="184.0" width="620" height="8" fill="black"/>
<rect x="0" y="313" width="620" height="9" fill="black"/>
</mask>
</defs>
<g mask="url(#grout)">
<rect x="273" y="74" width="226" height="226" fill="#C8BFE7" clip-path="url(#cs)"/>
<rect x="121" y="40" width="280" height="280" fill="#44DB72" clip-path="url(#cc)"/>
<g clip-path="url(#cs)"><g clip-path="url(#cc)">
<rect x="330" y="-1812" width="2000" height="2000" fill="#ABF5D8"/>
<rect x="-1670" y="188" width="2000" height="2000" fill="#B7EDF0"/>
<rect x="330" y="188" width="2000" height="2000" fill="#AABBF7"/>
</g></g>
<polygon points="190.0,322 430.0,322 310.0,476" fill="#7092BE"/>
</g>
<path fill="#3f4657" d="M61.9921875 -56.646484375Q66.708984375 -52.333984375 69.4716796875 -46.224609375Q72.234375 -40.115234375 72.234375 -32.298828125Q72.234375 -21.203125 66.6865234375 -12.802734375Q61.138671875 -4.40234375 50.986328125 -0.71875Q51.12109375 4.626953125 54.220703125 8.53515625Q57.3203125 12.443359375 61.54296875 12.443359375Q64.1484375 12.443359375 66.1025390625 12.12890625Q68.056640625 11.814453125 69.62890625 11.41015625V15.36328125Q67.068359375 16.44140625 62.037109375 17.5419921875Q57.005859375 18.642578125 51.48046875 18.642578125Q43.93359375 18.642578125 39.0595703125 14.1279296875Q34.185546875 9.61328125 33.6015625 1.52734375Q27.22265625 0.8984375 21.7421875 -1.6171875Q16.26171875 -4.1328125 12.083984375 -8.400390625Q7.99609375 -12.623046875 5.5927734375 -18.41796875Q3.189453125 -24.212890625 3.189453125 -31.17578125Q3.189453125 -38.9921875 5.8623046875 -45.3486328125Q8.53515625 -51.705078125 13.20703125 -56.2421875Q17.833984375 -60.689453125 24.1904296875 -63.0927734375Q30.546875 -65.49609375 37.734375 -65.49609375Q44.876953125 -65.49609375 51.1435546875 -63.16015625Q57.41015625 -60.82421875 61.9921875 -56.646484375ZM50.447265625 -11.05078125Q52.46875 -15.138671875 53.3671875 -20.3046875Q54.265625 -25.470703125 54.265625 -31.984375Q54.265625 -37.509765625 53.4794921875 -42.7431640625Q52.693359375 -47.9765625 50.806640625 -52.064453125Q48.875 -56.15234375 45.685546875 -58.623046875Q42.49609375 -61.09375 37.734375 -61.09375Q29.603515625 -61.09375 25.380859375 -53.3896484375Q21.158203125 -45.685546875 21.158203125 -31.625Q21.158203125 -25.650390625 22.0791015625 -20.349609375Q23.0 -15.048828125 24.9765625 -11.095703125Q26.998046875 -7.09765625 30.09765625 -4.8740234375Q33.197265625 -2.650390625 37.734375 -2.650390625Q42.181640625 -2.650390625 45.37109375 -4.896484375Q48.560546875 -7.142578125 50.447265625 -11.05078125Z M136.65234375 -0.943359375 115.224609375 0.359375 114.55078125 -0.26953125V-6.154296875H114.28125Q112.75390625 -4.76171875 111.2939453125 -3.4365234375Q109.833984375 -2.111328125 107.8125 -1.033203125Q105.521484375 0.1796875 103.4775390625 0.763671875Q101.43359375 1.34765625 97.525390625 1.34765625Q90.7421875 1.34765625 87.1259765625 -2.740234375Q83.509765625 -6.828125 83.509765625 -14.28515625V-34.5Q83.509765625 -36.251953125 82.8359375 -37.3525390625Q82.162109375 -38.453125 81.0390625 -39.306640625Q80.140625 -39.98046875 78.703125 -40.2724609375Q77.265625 -40.564453125 76.09765625 -40.654296875V-43.93359375L97.884765625 -45.1015625L98.37890625 -44.427734375V-14.5546875Q98.37890625 -9.927734375 100.1533203125 -7.7265625Q101.927734375 -5.525390625 105.02734375 -5.525390625Q108.216796875 -5.525390625 110.7548828125 -7.1875Q113.29296875 -8.849609375 114.4609375 -10.736328125V-34.94921875Q114.4609375 -36.4765625 113.876953125 -37.689453125Q113.29296875 -38.90234375 112.169921875 -39.666015625Q111.361328125 -40.205078125 109.8564453125 -40.384765625Q108.3515625 -40.564453125 106.779296875 -40.654296875V-43.93359375L128.56640625 -45.1015625L129.240234375 -44.427734375V-9.748046875Q129.240234375 -8.17578125 129.869140625 -7.0751953125Q130.498046875 -5.974609375 131.7109375 -5.2109375Q132.564453125 -4.671875 133.9345703125 -4.4697265625Q135.3046875 -4.267578125 136.65234375 -4.22265625Z M191.63671875 -0.943359375Q189.66015625 -0.08984375 186.96484375 0.62890625Q184.26953125 1.34765625 181.259765625 1.34765625Q175.734375 1.34765625 173.12890625 -0.2919921875Q170.5234375 -1.931640625 169.580078125 -4.986328125H169.310546875Q167.783203125 -3.458984375 166.3681640625 -2.380859375Q164.953125 -1.302734375 163.3359375 -0.5390625Q161.224609375 0.44921875 159.2705078125 0.9208984375Q157.31640625 1.392578125 153.8125 1.392578125Q148.6015625 1.392578125 144.91796875 -1.6845703125Q141.234375 -4.76171875 141.234375 -9.837890625Q141.234375 -12.7578125 142.04296875 -14.8017578125Q142.8515625 -16.845703125 144.333984375 -18.41796875Q145.681640625 -19.85546875 147.4560546875 -20.798828125Q149.23046875 -21.7421875 151.341796875 -22.55078125Q155.384765625 -24.033203125 161.044921875 -25.6279296875Q166.705078125 -27.22265625 169.310546875 -28.48046875V-32.79296875Q169.310546875 -33.916015625 169.130859375 -35.7578125Q168.951171875 -37.599609375 168.3671875 -38.857421875Q167.73828125 -40.294921875 166.390625 -41.283203125Q165.04296875 -42.271484375 162.841796875 -42.271484375Q160.865234375 -42.271484375 159.5400390625 -41.7099609375Q158.21484375 -41.1484375 157.40625 -40.564453125Q157.541015625 -39.666015625 158.169921875 -37.82421875Q158.798828125 -35.982421875 158.798828125 -34.275390625Q158.798828125 -33.51171875 158.39453125 -32.3662109375Q157.990234375 -31.220703125 157.2265625 -30.546875Q156.193359375 -29.6484375 154.9130859375 -29.154296875Q153.6328125 -28.66015625 150.982421875 -28.66015625Q147.208984375 -28.66015625 145.27734375 -30.4794921875Q143.345703125 -32.298828125 143.345703125 -35.21875Q143.345703125 -37.734375 145.3447265625 -39.7333984375Q147.34375 -41.732421875 150.21875 -43.03515625Q153.048828125 -44.3828125 156.732421875 -45.1240234375Q160.416015625 -45.865234375 163.560546875 -45.865234375Q167.91796875 -45.865234375 171.556640625 -45.3486328125Q175.1953125 -44.83203125 178.115234375 -43.21484375Q180.900390625 -41.642578125 182.5400390625 -38.6552734375Q184.1796875 -35.66796875 184.1796875 -30.861328125Q184.1796875 -25.78515625 183.9775390625 -18.822265625Q183.775390625 -11.859375 183.775390625 -9.658203125Q183.775390625 -7.63671875 184.3818359375 -6.46875Q184.98828125 -5.30078125 186.24609375 -4.716796875Q187.009765625 -4.357421875 188.6494140625 -4.2900390625Q190.2890625 -4.22265625 191.63671875 -4.22265625ZM169.310546875 -24.34765625Q166.794921875 -23.494140625 164.32421875 -22.3935546875Q161.853515625 -21.29296875 160.28125 -20.080078125Q158.619140625 -18.822265625 157.67578125 -16.8681640625Q156.732421875 -14.9140625 156.732421875 -12.263671875Q156.732421875 -8.759765625 158.3271484375 -7.1875Q159.921875 -5.615234375 162.2578125 -5.615234375Q164.728515625 -5.615234375 166.3232421875 -6.6259765625Q167.91796875 -7.63671875 169.130859375 -9.119140625Z M268.767578125 0.0H244.330078125Q237.99609375 -9.703125 233.7958984375 -15.453125Q229.595703125 -21.203125 223.3515625 -28.75H220.880859375V-9.388671875Q220.880859375 -7.771484375 221.4873046875 -6.6484375Q222.09375 -5.525390625 223.80078125 -4.76171875Q224.654296875 -4.40234375 226.4736328125 -4.0205078125Q228.29296875 -3.638671875 229.595703125 -3.50390625V0.0H195.58984375V-3.50390625Q196.892578125 -3.638671875 199.0263671875 -3.8857421875Q201.16015625 -4.1328125 202.05859375 -4.4921875Q203.765625 -5.2109375 204.349609375 -6.3115234375Q204.93359375 -7.412109375 204.93359375 -9.119140625V-54.0859375Q204.93359375 -55.703125 204.439453125 -56.78125Q203.9453125 -57.859375 202.05859375 -58.66796875Q200.62109375 -59.251953125 198.6669921875 -59.65625Q196.712890625 -60.060546875 195.58984375 -60.240234375V-63.744140625H231.34765625Q243.341796875 -63.744140625 249.5634765625 -59.9931640625Q255.78515625 -56.2421875 255.78515625 -48.650390625Q255.78515625 -41.95703125 251.9443359375 -37.8916015625Q248.103515625 -33.826171875 240.2421875 -31.53515625Q243.296875 -27.58203125 247.3623046875 -22.37109375Q251.427734375 -17.16015625 255.830078125 -11.724609375Q257.22265625 -9.97265625 259.6259765625 -7.4345703125Q262.029296875 -4.896484375 263.87109375 -4.3125Q264.904296875 -3.998046875 266.4990234375 -3.7734375Q268.09375 -3.548828125 268.767578125 -3.50390625ZM238.17578125 -47.392578125Q238.17578125 -53.771484375 234.6044921875 -56.7138671875Q231.033203125 -59.65625 224.4296875 -59.65625H220.880859375V-32.97265625H224.294921875Q230.8984375 -32.97265625 234.537109375 -36.431640625Q238.17578125 -39.890625 238.17578125 -47.392578125Z M302.369140625 1.70703125Q295.361328125 1.70703125 289.251953125 -0.5615234375Q283.142578125 -2.830078125 278.60546875 -7.142578125Q274.158203125 -11.365234375 271.59765625 -17.5869140625Q269.037109375 -23.80859375 269.037109375 -31.265625Q269.037109375 -38.677734375 271.6201171875 -44.9892578125Q274.203125 -51.30078125 278.875 -55.927734375Q283.45703125 -60.46484375 289.880859375 -62.9580078125Q296.3046875 -65.451171875 303.626953125 -65.451171875Q308.927734375 -65.451171875 313.28515625 -64.1708984375Q317.642578125 -62.890625 320.65234375 -61.2734375L323.4375 -63.744140625H327.345703125L327.75 -40.474609375H323.796875Q320.427734375 -51.12109375 315.7109375 -56.107421875Q310.994140625 -61.09375 304.2109375 -61.09375Q295.765625 -61.09375 291.36328125 -53.6591796875Q286.9609375 -46.224609375 286.9609375 -32.79296875Q286.9609375 -25.201171875 288.4658203125 -19.8330078125Q289.970703125 -14.46484375 292.396484375 -11.185546875Q295.001953125 -7.771484375 298.55078125 -6.1767578125Q302.099609375 -4.58203125 306.412109375 -4.58203125Q312.701171875 -4.58203125 317.6201171875 -7.99609375Q322.5390625 -11.41015625 326.58203125 -18.328125L330.4453125 -15.9921875Q328.513671875 -12.0390625 326.04296875 -8.9169921875Q323.572265625 -5.794921875 320.337890625 -3.548828125Q316.7890625 -1.078125 312.4990234375 0.314453125Q308.208984375 1.70703125 302.369140625 1.70703125Z M361.486328125 1.70703125Q355.646484375 1.70703125 350.5927734375 0.26953125Q345.5390625 -1.16796875 342.03515625 -3.14453125L338.935546875 0.0H335.1171875L334.533203125 -23.044921875H338.396484375Q339.69921875 -19.765625 341.720703125 -16.126953125Q343.7421875 -12.48828125 346.392578125 -9.61328125Q349.1328125 -6.603515625 352.5244140625 -4.716796875Q355.916015625 -2.830078125 360.453125 -2.830078125Q366.5625 -2.830078125 369.8193359375 -5.8173828125Q373.076171875 -8.8046875 373.076171875 -13.341796875Q373.076171875 -17.0703125 370.3134765625 -19.6083984375Q367.55078125 -22.146484375 361.755859375 -23.98828125Q357.982421875 -25.201171875 354.8154296875 -26.234375Q351.6484375 -27.267578125 348.86328125 -28.345703125Q342.439453125 -30.90625 339.3173828125 -35.66796875Q336.1953125 -40.4296875 336.1953125 -46.314453125Q336.1953125 -50.04296875 337.8125 -53.4794921875Q339.4296875 -56.916015625 342.529296875 -59.65625Q345.494140625 -62.216796875 350.12109375 -63.833984375Q354.748046875 -65.451171875 360.18359375 -65.451171875Q365.484375 -65.451171875 370.111328125 -63.9912109375Q374.73828125 -62.53125 377.388671875 -61.048828125L380.12890625 -63.744140625H384.037109375L384.396484375 -42.001953125H380.533203125Q379.185546875 -45.505859375 377.3662109375 -49.1669921875Q375.546875 -52.828125 373.525390625 -55.25390625Q371.32421875 -57.859375 368.44921875 -59.4091796875Q365.57421875 -60.958984375 361.7109375 -60.958984375Q356.859375 -60.958984375 353.7822265625 -58.21875Q350.705078125 -55.478515625 350.705078125 -51.435546875Q350.705078125 -47.6171875 353.3779296875 -45.19140625Q356.05078125 -42.765625 361.7109375 -40.923828125Q365.03515625 -39.80078125 368.494140625 -38.677734375Q371.953125 -37.5546875 374.6484375 -36.521484375Q381.162109375 -34.005859375 384.5537109375 -29.5810546875Q387.9453125 -25.15625 387.9453125 -18.59765625Q387.9453125 -14.46484375 386.013671875 -10.6015625Q384.08203125 -6.73828125 380.802734375 -4.177734375Q377.208984375 -1.34765625 372.4921875 0.1796875Q367.775390625 1.70703125 361.486328125 1.70703125Z M400.3916015625 0.0V-23.853515625H404.0302734375V-20.4619140625Q406.658203125 -24.392578125 411.6220703125 -24.392578125Q413.7783203125 -24.392578125 415.58642578125 -23.61767578125Q417.39453125 -22.8427734375 418.29296875 -21.5849609375Q419.19140625 -20.3271484375 419.55078125 -18.59765625Q419.775390625 -17.474609375 419.775390625 -14.6669921875V0.0H415.732421875V-14.509765625Q415.732421875 -16.98046875 415.2607421875 -18.20458984375Q414.7890625 -19.4287109375 413.58740234375 -20.15869140625Q412.3857421875 -20.888671875 410.7685546875 -20.888671875Q408.185546875 -20.888671875 406.31005859375 -19.2490234375Q404.4345703125 -17.609375 404.4345703125 -13.02734375V0.0Z M442.3037109375 -7.681640625 446.4814453125 -7.1650390625Q445.4931640625 -3.50390625 442.8203125 -1.482421875Q440.1474609375 0.5390625 435.9921875 0.5390625Q430.7587890625 0.5390625 427.69287109375 -2.68408203125Q424.626953125 -5.9072265625 424.626953125 -11.724609375Q424.626953125 -17.744140625 427.7265625 -21.068359375Q430.826171875 -24.392578125 435.767578125 -24.392578125Q440.5517578125 -24.392578125 443.583984375 -21.1357421875Q446.6162109375 -17.87890625 446.6162109375 -11.9716796875Q446.6162109375 -11.6123046875 446.59375 -10.8935546875H428.8046875Q429.029296875 -6.962890625 431.0283203125 -4.8740234375Q433.02734375 -2.78515625 436.0146484375 -2.78515625Q438.23828125 -2.78515625 439.810546875 -3.953125Q441.3828125 -5.12109375 442.3037109375 -7.681640625ZM429.029296875 -14.2177734375H442.3486328125Q442.0791015625 -17.2275390625 440.8212890625 -18.732421875Q438.8896484375 -21.068359375 435.8125 -21.068359375Q433.02734375 -21.068359375 431.12939453125 -19.2041015625Q429.2314453125 -17.33984375 429.029296875 -14.2177734375Z M460.384765625 -3.6162109375 460.96875 -0.044921875Q459.26171875 0.314453125 457.9140625 0.314453125Q455.712890625 0.314453125 454.5 -0.3818359375Q453.287109375 -1.078125 452.79296875 -2.21240234375Q452.298828125 -3.3466796875 452.298828125 -6.9853515625V-20.708984375H449.333984375V-23.853515625H452.298828125V-29.7607421875L456.3193359375 -32.1865234375V-23.853515625H460.384765625V-20.708984375H456.3193359375V-6.7607421875Q456.3193359375 -5.03125 456.53271484375 -4.537109375Q456.74609375 -4.04296875 457.22900390625 -3.7509765625Q457.7119140625 -3.458984375 458.6103515625 -3.458984375Q459.2841796875 -3.458984375 460.384765625 -3.6162109375Z M468.740234375 0.0 461.4404296875 -23.853515625H465.6181640625L469.4140625 -10.0849609375L470.8291015625 -4.9638671875Q470.9189453125 -5.345703125 472.064453125 -9.8828125L475.8603515625 -23.853515625H480.015625L483.5869140625 -10.017578125L484.77734375 -5.4580078125L486.1474609375 -10.0625L490.2353515625 -23.853515625H494.166015625L486.708984375 0.0H482.5087890625L478.712890625 -14.28515625L477.7919921875 -18.3505859375L472.962890625 0.0Z M496.052734375 -11.9267578125Q496.052734375 -18.552734375 499.736328125 -21.7421875Q502.8134765625 -24.392578125 507.23828125 -24.392578125Q512.1572265625 -24.392578125 515.279296875 -21.16943359375Q518.4013671875 -17.9462890625 518.4013671875 -12.263671875Q518.4013671875 -7.6591796875 517.02001953125 -5.02001953125Q515.638671875 -2.380859375 512.99951171875 -0.9208984375Q510.3603515625 0.5390625 507.23828125 0.5390625Q502.2294921875 0.5390625 499.14111328125 -2.6728515625Q496.052734375 -5.884765625 496.052734375 -11.9267578125ZM500.2080078125 -11.9267578125Q500.2080078125 -7.3447265625 502.20703125 -5.06494140625Q504.2060546875 -2.78515625 507.23828125 -2.78515625Q510.248046875 -2.78515625 512.2470703125 -5.076171875Q514.24609375 -7.3671875 514.24609375 -12.0615234375Q514.24609375 -16.486328125 512.23583984375 -18.76611328125Q510.2255859375 -21.0458984375 507.23828125 -21.0458984375Q504.2060546875 -21.0458984375 502.20703125 -18.77734375Q500.2080078125 -16.5087890625 500.2080078125 -11.9267578125Z M523.095703125 0.0V-23.853515625H526.734375V-20.2373046875Q528.126953125 -22.775390625 529.30615234375 -23.583984375Q530.4853515625 -24.392578125 531.900390625 -24.392578125Q533.9443359375 -24.392578125 536.0556640625 -23.08984375L534.6630859375 -19.3388671875Q533.1806640625 -20.21484375 531.6982421875 -20.21484375Q530.373046875 -20.21484375 529.3173828125 -19.41748046875Q528.26171875 -18.6201171875 527.8125 -17.205078125Q527.138671875 -15.048828125 527.138671875 -12.48828125V0.0Z M538.4814453125 0.0V-32.927734375H542.5244140625V-14.150390625L552.0927734375 -23.853515625H557.326171875L548.20703125 -15.00390625L558.2470703125 0.0H553.2607421875L545.376953125 -12.1962890625L542.5244140625 -9.4560546875V0.0Z" transform="translate(29.30,575.45) scale(1.0)"/>
</svg>